<?xml version="1.0" encoding="utf-8"?>
<!-- Generator: Adobe Illustrator 17.0.0, SVG Export Plug-In . SVG Version: 6.00 Build 0)  -->
<!DOCTYPE svg PUBLIC "-//W3C//DTD SVG 1.1//EN" "http://www.w3.org/Graphics/SVG/1.1/DTD/svg11.dtd">
<svg version="1.1" id="Layer_1" xmlns="http://www.w3.org/2000/svg" xmlns:xlink="http://www.w3.org/1999/xlink" x="0px" y="0px"
	 width="34px" height="34px" viewBox="0 0 34 34" enable-background="new 0 0 34 34" xml:space="preserve">
<g>
	<path fill="#63B12D" d="M15.486,3.392c0.29-0.725-0.064-1.548-0.789-1.837c-0.719-0.287-1.548,0.062-1.837,0.787L10.998,7
		l2.176,2.175L15.486,3.392z"/>
	<path fill="#63B12D" d="M21.14,2.342c-0.29-0.725-1.118-1.074-1.837-0.787c-0.725,0.291-1.078,1.112-0.789,1.837l3.748,9.367h3.044
		L21.14,2.342z"/>
	<polygon fill="#63B12D" points="8.714,12.711 8.694,12.761 8.762,12.761 	"/>
	<path fill="#63B12D" d="M2.867,14.174H2.16c-1.17,0-2.12,0.95-2.12,2.12s0.95,2.12,2.12,2.12h0.598l3.933,12.782
		c0.228,0.742,1.051,1.351,1.829,1.351H25.48c0.75,0,1.532-0.571,1.792-1.279l-3.205-3.205v0.243c0,0.78-0.632,1.413-1.413,1.413
		c-0.782,0-1.413-0.633-1.413-1.413v-3.07l-2.827-2.827v5.896c0,0.78-0.632,1.413-1.413,1.413c-0.782,0-1.413-0.633-1.413-1.413
		v-7.066c0-0.454,0.226-0.838,0.56-1.097l-5.97-5.968H8.129H2.867z M9.934,21.241c0-0.78,0.632-1.413,1.413-1.413
		c0.782,0,1.413,0.633,1.413,1.413v7.066c0,0.78-0.632,1.413-1.413,1.413s-1.413-0.633-1.413-1.413V21.241z"/>
	<path fill="#63B12D" d="M25.871,14.174h-3.044h-4.655l10.993,10.993l2.078-6.753h0.598c1.17,0,2.12-0.95,2.12-2.12
		s-0.95-2.12-2.12-2.12h-0.707C31.133,14.174,25.871,14.174,25.871,14.174z"/>
	<polygon fill="#63B12D" points="3.011,1.011 1.009,3.009 10.762,12.761 12.175,14.174 30.992,32.989 32.99,30.991 16.173,14.174 
		14.76,12.761 	"/>
</g>
</svg>
