<svg xmlns="http://www.w3.org/2000/svg" viewBox="0 0 88.8 71"><title>Ресурс 1</title><g id="Слой_2" data-name="Слой 2"><g id="Слой_1-2" data-name="Слой 1"><path d="M88.8,0H0V51H88.8Zm-4,14.9h-.4A10.7,10.7,0,0,1,73.6,4.3V4H84.8ZM69.6,47H19.2v-.2A14.8,14.8,0,0,0,4.4,32.1H4V18.9h.4A14.8,14.8,0,0,0,19.2,4.2V4H69.6v.2A14.8,14.8,0,0,0,84.4,18.9h.5V32.1h-.5A14.8,14.8,0,0,0,69.6,46.8ZM15.2,4v.2A10.7,10.7,0,0,1,4.5,14.9H4V4ZM4,36.1h.4A10.7,10.7,0,0,1,15.2,46.7s0,.07,0,.1V47H4ZM73.6,47v-.2A10.7,10.7,0,0,1,84.3,36.1h.6V47Z"/><path d="M44.4,11.3A14.2,14.2,0,1,0,58.6,25.5h0A14.2,14.2,0,0,0,44.4,11.3Zm0,24.4A10.2,10.2,0,1,1,54.6,25.5h0A10.2,10.2,0,0,1,44.4,35.7Z"/><rect x="10" y="57" width="68.9" height="4"/><rect x="20" y="67" width="48.9" height="4"/></g></g></svg>