<?xml version="1.0" encoding="utf-8"?>
<!-- Generator: Adobe Illustrator 17.0.0, SVG Export Plug-In . SVG Version: 6.00 Build 0)  -->
<!DOCTYPE svg PUBLIC "-//W3C//DTD SVG 1.1//EN" "http://www.w3.org/Graphics/SVG/1.1/DTD/svg11.dtd">
<svg version="1.1" id="Layer_1" xmlns="http://www.w3.org/2000/svg" xmlns:xlink="http://www.w3.org/1999/xlink" x="0px" y="0px"
	 width="34px" height="34px" viewBox="0 0 34 34" enable-background="new 0 0 34 34" xml:space="preserve">
<path fill="#63B12D" d="M16.71,17.7c-0.171,0.921-0.512,1.979-1.16,2.867c0.068,0.444,0.205,1.126,0.512,1.536
	c0,0,0.921,0.41,2.321,0.921l0.853,4.266c0.068,0.273,0.171,0.546,0.307,0.785H0.329c0-0.137,0-0.273,0-0.444
	c0-1.297,0.307-3.242,2.218-3.72C5.448,23.194,7.939,22,7.973,21.965c0.239-0.41,0.375-0.956,0.41-1.365
	c-0.751-0.99-1.092-2.15-1.229-3.14c-0.273-0.034-0.648-0.41-1.024-1.809c-0.512-1.775-0.034-2.15,0.41-2.15
	c0.034,0,0.068,0,0.102,0c-0.341-0.99-0.341-1.979-0.137-2.901C6.745,9.543,7.325,8.69,7.973,8.008
	c0.41-0.444,0.853-0.819,1.365-1.126c0.41-0.273,0.819-0.512,1.297-0.683l0,0l0,0c0.375-0.137,0.785-0.205,1.194-0.239
	c0.171,0,0.341-0.034,0.512-0.034c1.058,0,1.877,0.307,2.491,0.648c1.058,0.58,1.467,1.365,1.467,1.365s2.662,0.205,1.502,5.836l0,0
	c0.341,0.137,0.614,0.614,0.205,2.116c-0.41,1.433-0.785,1.809-1.058,1.809C16.846,17.768,16.778,17.768,16.71,17.7z M21.863,28.074
	c-0.58,0-1.16-0.478-1.297-1.058l-0.887-4.437l-0.034-0.137l-0.137-0.717h-0.546c-0.512,0-0.921-0.41-0.921-0.921v-1.229
	c0-0.034,0-0.068,0-0.102s0-0.068,0-0.102s0-0.068,0.034-0.102c0-0.034,0.034-0.068,0.034-0.102
	c0.034-0.102,0.102-0.205,0.205-0.307c0.034-0.034,0.102-0.068,0.137-0.102c0.034,0,0.034-0.034,0.068-0.034
	c0.034,0,0.068-0.034,0.068-0.034c0.102-0.034,0.239-0.068,0.375-0.068h0.785h0.717l3.14-4.607c0.171-0.239,0.512-0.307,0.785-0.137
	c0.239,0.171,0.307,0.512,0.137,0.785l-2.73,3.959h7.849l-2.73-3.959c-0.171-0.239-0.102-0.614,0.137-0.785
	c0.239-0.171,0.614-0.102,0.785,0.137l3.174,4.607h0.956h0.785c0.137,0,0.273,0.034,0.41,0.102c0.102,0.068,0.205,0.137,0.273,0.205
	c0.034,0.034,0.034,0.034,0.068,0.068c0.102,0.171,0.171,0.341,0.171,0.546v1.229c0,0.512-0.41,0.921-0.921,0.921h-0.546
	l-1.058,5.29c-0.102,0.58-0.683,1.058-1.297,1.058h-0.41h-2.56c-0.58,0-1.57,0-2.15,0h-2.56h-0.307V28.074z M28.04,26.095
	c0,0.307,0.273,0.58,0.58,0.58s0.58-0.273,0.58-0.58v-2.287c0-0.307-0.273-0.58-0.58-0.58c-0.307,0-0.58,0.273-0.58,0.58V26.095z
	 M26.197,26.095c0,0.307,0.273,0.58,0.58,0.58c0.307,0,0.58-0.273,0.58-0.58v-2.287c0-0.307-0.273-0.58-0.58-0.58
	c-0.307,0-0.58,0.273-0.58,0.58V26.095z M24.388,26.095c0,0.307,0.273,0.58,0.58,0.58c0.307,0,0.58-0.273,0.58-0.58v-2.287
	c0-0.307-0.273-0.58-0.58-0.58c-0.307,0-0.58,0.273-0.58,0.58V26.095z M22.546,26.095c0,0.307,0.273,0.58,0.58,0.58
	s0.58-0.273,0.58-0.58v-2.287c0-0.307-0.273-0.58-0.58-0.58c-0.307,0-0.58,0.273-0.58,0.58V26.095z"/>
</svg>
