<?xml version="1.0" encoding="utf-8"?>
<!-- Generator: Adobe Illustrator 17.0.0, SVG Export Plug-In . SVG Version: 6.00 Build 0)  -->
<!DOCTYPE svg PUBLIC "-//W3C//DTD SVG 1.1//EN" "http://www.w3.org/Graphics/SVG/1.1/DTD/svg11.dtd">
<svg version="1.1" id="Layer_1" xmlns="http://www.w3.org/2000/svg" xmlns:xlink="http://www.w3.org/1999/xlink" x="0px" y="0px"
	 width="34px" height="34px" viewBox="0 0 34 34" enable-background="new 0 0 34 34" xml:space="preserve">
<g>
	<polygon fill="#63B12D" points="11.9,3.4 11.9,0 0,0 0,11.9 3.4,11.9 3.4,5.78 9.52,11.9 11.9,9.52 5.78,3.4 	"/>
	<polygon fill="#63B12D" points="9.52,22.1 3.4,28.22 3.4,22.1 0,22.1 0,34 11.9,34 11.9,30.6 5.78,30.6 11.9,24.48 	"/>
	<polygon fill="#63B12D" points="30.6,28.22 24.48,22.1 22.1,24.48 28.22,30.6 22.1,30.6 22.1,34 34,34 34,22.1 30.6,22.1 	"/>
	<polygon fill="#63B12D" points="22.1,0 22.1,3.4 28.22,3.4 22.1,9.52 24.48,11.9 30.6,5.78 30.6,11.9 34,11.9 34,0 	"/>
</g>
</svg>
