<?xml version="1.0" encoding="UTF-8" standalone="no"?>
<!-- Created with Inkscape (http://www.inkscape.org/) -->

<svg
   xmlns:dc="http://purl.org/dc/elements/1.1/"
   xmlns:cc="http://creativecommons.org/ns#"
   xmlns:rdf="http://www.w3.org/1999/02/22-rdf-syntax-ns#"
   xmlns:svg="http://www.w3.org/2000/svg"
   xmlns="http://www.w3.org/2000/svg"
   xmlns:sodipodi="http://sodipodi.sourceforge.net/DTD/sodipodi-0.dtd"
   xmlns:inkscape="http://www.inkscape.org/namespaces/inkscape"
   width="64px"
   height="64px"
   id="svg6331"
   version="1.1"
   inkscape:version="0.48.5 r10040"
   sodipodi:docname="Shops.svg">
  <defs
     id="defs6333" />
  <sodipodi:namedview
     id="base"
     pagecolor="#ffffff"
     bordercolor="#666666"
     borderopacity="1.0"
     inkscape:pageopacity="0.0"
     inkscape:pageshadow="2"
     inkscape:zoom="5.5"
     inkscape:cx="61.636364"
     inkscape:cy="29.6337"
     inkscape:current-layer="layer1"
     showgrid="true"
     inkscape:document-units="px"
     inkscape:grid-bbox="true"
     inkscape:window-width="1366"
     inkscape:window-height="705"
     inkscape:window-x="-8"
     inkscape:window-y="-8"
     inkscape:window-maximized="1" />
  <metadata
     id="metadata6336">
    <rdf:RDF>
      <cc:Work
         rdf:about="">
        <dc:format>image/svg+xml</dc:format>
        <dc:type
           rdf:resource="http://purl.org/dc/dcmitype/StillImage" />
        <dc:title></dc:title>
      </cc:Work>
    </rdf:RDF>
  </metadata>
  <g
     id="layer1"
     inkscape:label="Layer 1"
     inkscape:groupmode="layer">
    <g
       transform="matrix(1.0826939,0,0,-1.3038389,58.734302,61.074485)"
       id="g4123">
      <path
         id="path4125"
         style="fill:#606163;fill-opacity:1;fill-rule:nonzero;stroke:none"
         d="m 0,0 -48.377,0 c -0.69,0 -1.25,0.56 -1.25,1.25 0,0.69 0.56,1.25 1.25,1.25 L 0,2.5 C 0.69,2.5 1.25,1.94 1.25,1.25 1.25,0.56 0.69,0 0,0"
         inkscape:connector-curvature="0" />
    </g>
    <g
       transform="matrix(1.0826939,0,0,-1.3038389,12.503053,61.074485)"
       id="g4127">
      <path
         id="path4129"
         style="fill:#606163;fill-opacity:1;fill-rule:nonzero;stroke:none"
         d="m 0,0 c -0.69,0 -1.25,0.56 -1.25,1.25 l 0,17.742 c 0,0.691 0.56,1.25 1.25,1.25 0.69,0 1.25,-0.559 1.25,-1.25 L 1.25,1.25 C 1.25,0.56 0.69,0 0,0"
         inkscape:connector-curvature="0" />
    </g>
    <g
       transform="matrix(1.0826939,0,0,-1.3038389,25.1814,61.074485)"
       id="g4131">
      <path
         id="path4133"
         style="fill:#606163;fill-opacity:1;fill-rule:nonzero;stroke:none"
         d="m 0,0 c -0.69,0 -1.25,0.56 -1.25,1.25 l 0,17.742 c 0,0.691 0.56,1.25 1.25,1.25 0.69,0 1.25,-0.559 1.25,-1.25 L 1.25,1.25 C 1.25,0.56 0.69,0 0,0"
         inkscape:connector-curvature="0" />
    </g>
    <g
       transform="matrix(1.0826939,0,0,-1.3038389,52.970793,61.074485)"
       id="g4135">
      <path
         id="path4137"
         style="fill:#606163;fill-opacity:1;fill-rule:nonzero;stroke:none"
         d="m 0,0 c -0.69,0 -1.25,0.56 -1.25,1.25 l 0,17.742 c 0,0.691 0.56,1.25 1.25,1.25 0.69,0 1.25,-0.559 1.25,-1.25 L 1.25,1.25 C 1.25,0.56 0.69,0 0,0"
         inkscape:connector-curvature="0" />
    </g>
    <g
       transform="matrix(1.0826939,0,0,-1.3038389,33.374474,49.665894)"
       id="g4139">
      <path
         id="path4141"
         style="fill:#606163;fill-opacity:1;fill-rule:nonzero;stroke:none"
         d="m 0,0 c -0.32,0 -0.64,0.122 -0.884,0.366 -0.488,0.488 -0.488,1.28 0,1.768 l 7.512,7.512 c 0.488,0.488 1.279,0.488 1.768,0 0.488,-0.489 0.488,-1.28 0,-1.768 L 0.884,0.366 C 0.64,0.122 0.32,0 0,0"
         inkscape:connector-curvature="0" />
    </g>
    <g
       transform="matrix(1.0826939,0,0,-1.3038389,37.109006,54.163096)"
       id="g4143">
      <path
         id="path4145"
         style="fill:#606163;fill-opacity:1;fill-rule:nonzero;stroke:none"
         d="m 0,0 c -0.32,0 -0.64,0.122 -0.884,0.366 -0.488,0.488 -0.488,1.28 0,1.768 l 7.512,7.512 c 0.488,0.488 1.279,0.488 1.768,0 0.488,-0.489 0.488,-1.28 0,-1.768 L 0.884,0.366 C 0.64,0.122 0.32,0 0,0"
         inkscape:connector-curvature="0" />
    </g>
    <g
       transform="matrix(1.0826939,0,0,-1.3038389,54.994573,32.825521)"
       id="g4147">
      <path
         id="path4149"
         style="fill:#606163;fill-opacity:1;fill-rule:nonzero;stroke:none"
         d="m 0,0 c -3.548,0 -6.434,2.886 -6.434,6.434 0,0.69 0.56,1.25 1.25,1.25 0.691,0 1.25,-0.56 1.25,-1.25 C -3.934,4.265 -2.169,2.5 0,2.5 c 2.079,0 3.786,1.621 3.925,3.665 l -6.577,13.571 -35.827,0 -6.915,-13.583 c 0.145,-2.039 1.849,-3.653 3.924,-3.653 2.169,0 3.934,1.765 3.934,3.934 0,0.69 0.559,1.25 1.25,1.25 0.69,0 1.25,-0.56 1.25,-1.25 0,-3.548 -2.886,-6.434 -6.434,-6.434 -3.548,0 -6.433,2.886 -6.433,6.434 0,0.197 0.047,0.391 0.135,0.567 l 7.408,14.553 c 0.214,0.419 0.643,0.682 1.114,0.682 l 37.377,0 c 0.479,0 0.916,-0.273 1.125,-0.705 L 6.309,6.979 C 6.391,6.809 6.434,6.622 6.434,6.434 6.434,2.886 3.548,0 0,0"
         inkscape:connector-curvature="0" />
    </g>
    <g
       transform="matrix(1.0826939,0,0,-1.3038389,21.319976,32.825521)"
       id="g4151">
      <path
         id="path4153"
         style="fill:#606163;fill-opacity:1;fill-rule:nonzero;stroke:none"
         d="m 0,0 c -3.548,0 -6.434,2.886 -6.434,6.434 0,0.69 0.56,1.25 1.25,1.25 0.691,0 1.25,-0.56 1.25,-1.25 C -3.934,4.265 -2.169,2.5 0,2.5 c 2.169,0 3.934,1.765 3.934,3.934 0,0.69 0.559,1.25 1.25,1.25 0.69,0 1.25,-0.56 1.25,-1.25 C 6.434,2.886 3.548,0 0,0"
         inkscape:connector-curvature="0" />
    </g>
    <g
       transform="matrix(1.0826939,0,0,-1.3038389,32.545555,32.825521)"
       id="g4155">
      <path
         id="path4157"
         style="fill:#606163;fill-opacity:1;fill-rule:nonzero;stroke:none"
         d="m 0,0 c -3.548,0 -6.435,2.886 -6.435,6.434 0,0.69 0.56,1.25 1.25,1.25 0.691,0 1.25,-0.56 1.25,-1.25 C -3.935,4.265 -2.17,2.5 0,2.5 c 2.169,0 3.934,1.765 3.934,3.934 0,0.69 0.559,1.25 1.25,1.25 0.69,0 1.25,-0.56 1.25,-1.25 C 6.434,2.886 3.548,0 0,0"
         inkscape:connector-curvature="0" />
    </g>
    <g
       transform="matrix(1.0826939,0,0,-1.3038389,43.77006,32.825521)"
       id="g4159">
      <path
         id="path4161"
         style="fill:#606163;fill-opacity:1;fill-rule:nonzero;stroke:none"
         d="m 0,0 c -3.548,0 -6.434,2.886 -6.434,6.434 0,0.69 0.56,1.25 1.25,1.25 0.691,0 1.25,-0.56 1.25,-1.25 C -3.934,4.265 -2.169,2.5 0,2.5 c 2.169,0 3.934,1.765 3.934,3.934 0,0.69 0.559,1.25 1.25,1.25 0.69,0 1.25,-0.56 1.25,-1.25 C 6.434,2.886 3.548,0 0,0"
         inkscape:connector-curvature="0" />
    </g>
    <g
       transform="matrix(1.0826939,0,0,-1.3038389,19.88519,51.504443)"
       id="g4163">
      <path
         id="path4165"
         style="fill:#606163;fill-opacity:1;fill-rule:nonzero;stroke:none"
         d="m 0,0 c -0.69,0 -1.25,0.56 -1.25,1.25 l 0,3.824 c 0,0.691 0.56,1.25 1.25,1.25 0.69,0 1.25,-0.559 1.25,-1.25 l 0,-3.824 C 1.25,0.56 0.69,0 0,0"
         inkscape:connector-curvature="0" />
    </g>
  </g>
</svg>
