<?xml version="1.0" encoding="UTF-8" standalone="no"?>
<!-- Generator: Adobe Illustrator 16.2.1, SVG Export Plug-In . SVG Version: 6.00 Build 0)  -->

<svg
   xmlns:dc="http://purl.org/dc/elements/1.1/"
   xmlns:cc="http://creativecommons.org/ns#"
   xmlns:rdf="http://www.w3.org/1999/02/22-rdf-syntax-ns#"
   xmlns:svg="http://www.w3.org/2000/svg"
   xmlns="http://www.w3.org/2000/svg"
   xmlns:sodipodi="http://sodipodi.sourceforge.net/DTD/sodipodi-0.dtd"
   xmlns:inkscape="http://www.inkscape.org/namespaces/inkscape"
   version="1.1"
   id="Layer_1"
   x="0px"
   y="0px"
   width="512px"
   height="512px"
   viewBox="0 0 512 512"
   enable-background="new 0 0 512 512"
   xml:space="preserve"
   sodipodi:docname="log-out.svg"
   inkscape:version="0.92.2 5c3e80d, 2017-08-06"><metadata
     id="metadata15"><rdf:RDF><cc:Work
         rdf:about=""><dc:format>image/svg+xml</dc:format><dc:type
           rdf:resource="http://purl.org/dc/dcmitype/StillImage" /><dc:title></dc:title></cc:Work></rdf:RDF></metadata><defs
     id="defs13" /><sodipodi:namedview
     pagecolor="#ffffff"
     bordercolor="#666666"
     borderopacity="1"
     objecttolerance="10"
     gridtolerance="10"
     guidetolerance="10"
     inkscape:pageopacity="0"
     inkscape:pageshadow="2"
     inkscape:window-width="1113"
     inkscape:window-height="611"
     id="namedview11"
     showgrid="false"
     inkscape:zoom="0.4609375"
     inkscape:cx="256"
     inkscape:cy="256"
     inkscape:window-x="0"
     inkscape:window-y="0"
     inkscape:window-maximized="0"
     inkscape:current-layer="Layer_1" /><g
     id="g8"
     style="fill:#63b12d;fill-opacity:1"><polygon
       points="366.863,323.883 389.49,346.51 480,256 389.49,165.49 366.862,188.118 418.745,240 192,240 192,272 418.745,272     "
       id="polygon2"
       style="fill:#63b12d;fill-opacity:1" /><g
       id="g6"
       style="fill:#63b12d;fill-opacity:1"><path
         d="M391.491,391.766C355.229,428.029,307.018,448,255.736,448c-51.287,0-99.506-19.971-135.772-56.235    C83.697,355.501,64,307.285,64,256c0-51.281,19.697-99.495,55.965-135.761C156.232,83.973,204.45,64,255.736,64    c51.279,0,99.491,19.973,135.755,56.238c2.527,2.528,4.966,5.121,7.333,7.762h40.731c-40.474-58.028-107.709-96-183.819-96    C132.021,32,32,132.298,32,256c0,123.715,100.021,224,223.736,224c76.112,0,143.35-37.97,183.822-96h-40.73    C396.46,386.643,394.021,389.236,391.491,391.766z"
         id="path4"
         style="fill:#63b12d;fill-opacity:1" /></g></g></svg>