<?xml version="1.0" encoding="utf-8"?>
<!-- Generator: Adobe Illustrator 17.0.0, SVG Export Plug-In . SVG Version: 6.00 Build 0)  -->
<!DOCTYPE svg PUBLIC "-//W3C//DTD SVG 1.1//EN" "http://www.w3.org/Graphics/SVG/1.1/DTD/svg11.dtd">
<svg version="1.1" id="Layer_1" xmlns="http://www.w3.org/2000/svg" xmlns:xlink="http://www.w3.org/1999/xlink" x="0px" y="0px"
	 width="34px" height="34px" viewBox="0 0 34 34" enable-background="new 0 0 34 34" xml:space="preserve">
<g>
	<g>
		<g>
			<g>
				<line x1="7.649" y1="17.397" x2="19.114" y2="29.83"/>
				
					<rect x="4.926" y="22.114" transform="matrix(0.6779 0.7352 -0.7352 0.6779 21.6702 -2.2317)" fill="#63B12D" width="16.913" height="2.999"/>
			</g>
		</g>
	</g>
	<g>
		<g>
			<path fill="#63B12D" d="M32.406,4.364L3.726,4.36c-0.547,0-0.99-0.443-0.99-0.991c0-0.546,0.443-0.99,0.99-0.99l24.937-0.004
				c0.655,0,1.185-0.531,1.185-1.185s-0.531-1.185-1.185-1.185H2.93c-1.525,0-2.766,1.241-2.766,2.766v24.941
				c0,0.789,0.64,1.43,1.43,1.43h3.04c1.854,2.913,5.109,4.852,8.81,4.852s6.956-1.938,8.81-4.851h10.152
				c0.79,0,1.43-0.641,1.43-1.43V5.794C33.836,5.004,33.196,4.364,32.406,4.364z M13.444,32.019c-4.665,0-8.461-3.795-8.461-8.46
				c0-0.351,0.022-0.705,0.065-1.053c0.523-4.223,4.133-7.408,8.396-7.408c1.092,0,2.154,0.205,3.157,0.608
				c3.222,1.296,5.304,4.379,5.304,7.853C21.905,28.223,18.109,32.019,13.444,32.019z M31.648,14.028h-7.748
				c-1.465,0-2.652-1.187-2.652-2.652c0-1.465,1.187-2.652,2.652-2.652h7.748V14.028z M23.026,11.377
				c0,0.627,0.509,1.137,1.137,1.137c0.628,0,1.137-0.509,1.137-1.137c0-0.628-0.509-1.137-1.137-1.137
				C23.534,10.24,23.026,10.749,23.026,11.377z"/>
		</g>
	</g>
</g>
</svg>
