<?xml version="1.0" encoding="UTF-8" standalone="no"?>
<!-- Generator: Adobe Illustrator 17.0.0, SVG Export Plug-In . SVG Version: 6.00 Build 0)  -->

<svg
   xmlns:dc="http://purl.org/dc/elements/1.1/"
   xmlns:cc="http://creativecommons.org/ns#"
   xmlns:rdf="http://www.w3.org/1999/02/22-rdf-syntax-ns#"
   xmlns:svg="http://www.w3.org/2000/svg"
   xmlns="http://www.w3.org/2000/svg"
   xmlns:sodipodi="http://sodipodi.sourceforge.net/DTD/sodipodi-0.dtd"
   xmlns:inkscape="http://www.inkscape.org/namespaces/inkscape"
   version="1.1"
   id="Layer_1"
   x="0px"
   y="0px"
   width="34px"
   height="34px"
   viewBox="0 0 34 34"
   enable-background="new 0 0 34 34"
   xml:space="preserve"
   sodipodi:docname="No charge grey.svg"
   inkscape:version="0.92.2 5c3e80d, 2017-08-06"><metadata
     id="metadata4745"><rdf:RDF><cc:Work
         rdf:about=""><dc:format>image/svg+xml</dc:format><dc:type
           rdf:resource="http://purl.org/dc/dcmitype/StillImage" /><dc:title></dc:title></cc:Work></rdf:RDF></metadata><defs
     id="defs4743" /><sodipodi:namedview
     pagecolor="#ffffff"
     bordercolor="#666666"
     borderopacity="1"
     objecttolerance="10"
     gridtolerance="10"
     guidetolerance="10"
     inkscape:pageopacity="0"
     inkscape:pageshadow="2"
     inkscape:window-width="1078"
     inkscape:window-height="678"
     id="namedview4741"
     showgrid="false"
     inkscape:zoom="16.529412"
     inkscape:cx="17"
     inkscape:cy="17"
     inkscape:window-x="0"
     inkscape:window-y="0"
     inkscape:window-maximized="0"
     inkscape:current-layer="g4738" /><g
     id="g4738"><g
       id="g4730"
       style="fill:#808080;fill-opacity:1"><g
         id="g4728"
         style="fill:#808080;fill-opacity:1"><g
           id="g4726"
           style="fill:#808080;fill-opacity:1"><line
             x1="7.649"
             y1="17.397"
             x2="19.114"
             y2="29.83"
             id="line4722"
             style="fill:#808080;fill-opacity:1" /><rect
             x="4.926"
             y="22.114"
             transform="matrix(0.6779 0.7352 -0.7352 0.6779 21.6702 -2.2317)"
             fill="#63B12D"
             width="16.913"
             height="2.999"
             id="rect4724"
             style="fill:#808080;fill-opacity:1" /></g></g></g><g
       id="g4736"
       style="fill:#808080;fill-opacity:1"><g
         id="g4734"
         style="fill:#808080;fill-opacity:1"><path
           fill="#63B12D"
           d="M32.406,4.364L3.726,4.36c-0.547,0-0.99-0.443-0.99-0.991c0-0.546,0.443-0.99,0.99-0.99l24.937-0.004     c0.655,0,1.185-0.531,1.185-1.185s-0.531-1.185-1.185-1.185H2.93c-1.525,0-2.766,1.241-2.766,2.766v24.941     c0,0.789,0.64,1.43,1.43,1.43h3.04c1.854,2.913,5.109,4.852,8.81,4.852s6.956-1.938,8.81-4.851h10.152     c0.79,0,1.43-0.641,1.43-1.43V5.794C33.836,5.004,33.196,4.364,32.406,4.364z M13.444,32.019c-4.665,0-8.461-3.795-8.461-8.46     c0-0.351,0.022-0.705,0.065-1.053c0.523-4.223,4.133-7.408,8.396-7.408c1.092,0,2.154,0.205,3.157,0.608     c3.222,1.296,5.304,4.379,5.304,7.853C21.905,28.223,18.109,32.019,13.444,32.019z M31.648,14.028h-7.748     c-1.465,0-2.652-1.187-2.652-2.652c0-1.465,1.187-2.652,2.652-2.652h7.748V14.028z M23.026,11.377     c0,0.627,0.509,1.137,1.137,1.137c0.628,0,1.137-0.509,1.137-1.137c0-0.628-0.509-1.137-1.137-1.137     C23.534,10.24,23.026,10.749,23.026,11.377z"
           id="path4732"
           style="fill:#808080;fill-opacity:1" /></g></g></g></svg>