<?xml version="1.0" encoding="UTF-8" standalone="no"?>
<!-- Generator: Adobe Illustrator 17.0.0, SVG Export Plug-In . SVG Version: 6.00 Build 0)  -->

<svg
   xmlns:dc="http://purl.org/dc/elements/1.1/"
   xmlns:cc="http://creativecommons.org/ns#"
   xmlns:rdf="http://www.w3.org/1999/02/22-rdf-syntax-ns#"
   xmlns:svg="http://www.w3.org/2000/svg"
   xmlns="http://www.w3.org/2000/svg"
   xmlns:sodipodi="http://sodipodi.sourceforge.net/DTD/sodipodi-0.dtd"
   xmlns:inkscape="http://www.inkscape.org/namespaces/inkscape"
   version="1.1"
   id="Layer_1"
   x="0px"
   y="0px"
   width="34px"
   height="34px"
   viewBox="0 0 34 34"
   enable-background="new 0 0 34 34"
   xml:space="preserve"
   sodipodi:docname="quick cash grey.svg"
   inkscape:version="0.92.2 5c3e80d, 2017-08-06"><metadata
     id="metadata3958"><rdf:RDF><cc:Work
         rdf:about=""><dc:format>image/svg+xml</dc:format><dc:type
           rdf:resource="http://purl.org/dc/dcmitype/StillImage" /><dc:title></dc:title></cc:Work></rdf:RDF></metadata><defs
     id="defs3956" /><sodipodi:namedview
     pagecolor="#ffffff"
     bordercolor="#666666"
     borderopacity="1"
     objecttolerance="10"
     gridtolerance="10"
     guidetolerance="10"
     inkscape:pageopacity="0"
     inkscape:pageshadow="2"
     inkscape:window-width="1280"
     inkscape:window-height="778"
     id="namedview3954"
     showgrid="false"
     inkscape:zoom="6.9411765"
     inkscape:cx="-8.7881356"
     inkscape:cy="17"
     inkscape:window-x="0"
     inkscape:window-y="0"
     inkscape:window-maximized="1"
     inkscape:current-layer="g3951" /><g
     id="g3951"><path
       fill="#63B12D"
       d="M15.848,11.955H6.471c-0.548,0-0.932-0.439-0.932-0.932s0.439-0.932,0.932-0.932h9.432   c0.548,0,0.932,0.439,0.932,0.932S16.397,11.955,15.848,11.955z"
       id="path3941"
       style="fill:#808080;fill-opacity:1" /><path
       fill="#63B12D"
       d="M9.816,23.965H3.674c-0.548,0-0.932-0.439-0.932-0.932c0-0.548,0.439-0.932,0.932-0.932h6.142   c0.548,0,0.932,0.439,0.932,0.932C10.803,23.526,10.365,23.965,9.816,23.965z"
       id="path3943"
       style="fill:#808080;fill-opacity:1" /><path
       fill="#63B12D"
       d="M9.816,17.932H0.932C0.439,17.932,0,17.548,0,17s0.439-0.932,0.932-0.932h8.884   c0.548,0,0.932,0.439,0.932,0.932C10.748,17.548,10.31,17.932,9.816,17.932z"
       id="path3945"
       style="fill:#808080;fill-opacity:1" /><path
       fill="#63B12D"
       d="M34,10.529c0-1.755-1.426-3.126-3.181-3.126l-8.884,0h-0.877l-0.932,1.919h1.81h8.884   c0.658,0,1.261,0.548,1.261,1.206V17v6.471c0,0.658-0.548,1.206-1.261,1.206h-8.939h-9.213l-0.932,1.919l10.145-0.055l8.939,0.055   l0,0c1.755,0,3.181-1.426,3.181-3.126V17V10.529z"
       id="path3947"
       style="fill:#808080;fill-opacity:1" /><path
       fill="#63B12D"
       d="M30.161,14.532c-1.81-0.494-3.071-1.755-3.565-3.565h-7.294l-5.923,12.065h2.413h10.803   c0.494-1.81,1.755-3.016,3.565-3.565V17V14.532z M24.019,18.645c-0.11,0.713-0.494,1.206-1.206,1.535   c-0.055,0.055-0.165,0.055-0.219,0.055l-0.11,0v1.042h-1.261V20.29h-0.165c-0.11,0-0.165-0.055-0.274-0.055   c-0.329-0.055-0.603-0.165-0.877-0.329c-0.165-0.11-0.219-0.274-0.165-0.494c0.055-0.11,0.11-0.274,0.11-0.384l0.165-0.494   l0.439,0.219c0.384,0.219,0.713,0.274,1.097,0.274h0.055c0.165,0,0.274-0.055,0.439-0.11c0.219-0.11,0.384-0.274,0.384-0.494   c0.055-0.219-0.055-0.494-0.274-0.658c-0.219-0.165-0.439-0.274-0.768-0.384c-0.329-0.11-0.713-0.329-1.097-0.603   c-0.384-0.329-0.603-0.823-0.603-1.316c0-0.548,0.274-1.097,0.713-1.426c0.219-0.165,0.439-0.274,0.713-0.384l0.11-0.055v-1.042   h1.206v0.932h0.11c0.11,0,0.219,0.055,0.329,0.055c0.165,0.055,0.329,0.11,0.439,0.165l0.11,0.055   c0.165,0.055,0.274,0.274,0.219,0.439c-0.055,0.165-0.11,0.274-0.165,0.439l-0.055,0.713l-0.329-0.165   c-0.219-0.11-0.439-0.219-0.658-0.219c-0.329-0.055-0.603-0.055-0.823,0c-0.274,0.11-0.329,0.274-0.384,0.439   c-0.055,0.219,0.055,0.384,0.219,0.494c0.219,0.11,0.439,0.219,0.713,0.384c0.329,0.165,0.713,0.274,1.042,0.548   C23.855,17.219,24.129,17.877,24.019,18.645z"
       id="path3949"
       style="fill:#808080;fill-opacity:1" /></g><g
     inkscape:groupmode="layer"
     id="layer1"
     inkscape:label="Layer 1" /></svg>