<?xml version="1.0" encoding="utf-8"?>
<!-- Generator: Adobe Illustrator 17.0.0, SVG Export Plug-In . SVG Version: 6.00 Build 0)  -->
<!DOCTYPE svg PUBLIC "-//W3C//DTD SVG 1.1//EN" "http://www.w3.org/Graphics/SVG/1.1/DTD/svg11.dtd">
<svg version="1.1" id="Layer_1" xmlns="http://www.w3.org/2000/svg" xmlns:xlink="http://www.w3.org/1999/xlink" x="0px" y="0px"
	 width="34px" height="34px" viewBox="0 0 34 34" enable-background="new 0 0 34 34" xml:space="preserve">
<g>
	<path fill="#63B12D" d="M33.721,13.875v-3.249c0-0.706-0.565-1.271-1.271-1.271H14.899c-1.307-2.472-3.92-4.167-6.886-4.167
		c-4.308,0-7.804,3.496-7.804,7.804c0,3.531,2.366,6.533,5.579,7.486v7.063c0,0.706,0.565,1.271,1.271,1.271H32.52
		c0.706,0,1.271-0.565,1.271-1.271V17.088H14.687c0.565-0.953,0.953-2.048,1.059-3.178h17.974V13.875z M1.656,13.063
		c0-3.496,2.825-6.321,6.321-6.321s6.321,2.825,6.321,6.321s-2.825,6.321-6.321,6.321S1.656,16.523,1.656,13.063z M13.027,25.493
		c0,0.177-0.141,0.353-0.353,0.353H9.425c-0.177,0-0.353-0.141-0.353-0.353v-0.953c0-0.177,0.141-0.353,0.353-0.353h3.249
		c0.177,0,0.353,0.141,0.353,0.353V25.493z M26.446,24.575c0-0.177,0.141-0.353,0.353-0.353h3.284c0.177,0,0.353,0.141,0.353,0.353
		v0.953c0,0.177-0.141,0.353-0.353,0.353h-3.284c-0.177,0-0.353-0.141-0.353-0.353V24.575z M20.655,24.575
		c0-0.177,0.141-0.353,0.353-0.353h3.284c0.177,0,0.353,0.141,0.353,0.353v0.953c0,0.177-0.141,0.353-0.353,0.353h-3.284
		c-0.177,0-0.353-0.141-0.353-0.353C20.655,25.528,20.655,24.575,20.655,24.575z M14.864,24.575c0-0.177,0.141-0.353,0.353-0.353
		h3.249c0.177,0,0.353,0.141,0.353,0.353v0.953c0,0.177-0.141,0.353-0.353,0.353h-3.249c-0.177,0-0.353-0.141-0.353-0.353V24.575z"
		/>
	<polygon fill="#63B12D" points="10.908,9.814 6.918,13.804 5.047,11.968 3.634,13.38 6.918,16.665 12.356,11.226 	"/>
</g>
</svg>
