<?xml version="1.0" encoding="utf-8"?>
<!-- Generator: Adobe Illustrator 17.0.0, SVG Export Plug-In . SVG Version: 6.00 Build 0)  -->
<!DOCTYPE svg PUBLIC "-//W3C//DTD SVG 1.1//EN" "http://www.w3.org/Graphics/SVG/1.1/DTD/svg11.dtd">
<svg version="1.1" id="Layer_1" xmlns="http://www.w3.org/2000/svg" xmlns:xlink="http://www.w3.org/1999/xlink" x="0px" y="0px"
	 width="34px" height="34px" viewBox="0 0 34 34" enable-background="new 0 0 34 34" xml:space="preserve">
<path fill="#63B12D" d="M17.027,1.889c-0.025,0-0.05,0.001-0.075,0.002c-0.345,0.008-0.686,0.1-0.989,0.266
	c-0.346,0.191-0.64,0.478-0.837,0.822L0.291,28.841C0.102,29.17,0,29.551,0,29.931c0,0.38,0.102,0.761,0.291,1.09
	c0.189,0.329,0.465,0.607,0.792,0.797c0.327,0.19,0.705,0.293,1.083,0.293h29.667c0.378,0,0.756-0.103,1.083-0.293
	c0.327-0.19,0.603-0.468,0.792-0.797c0.189-0.329,0.291-0.71,0.291-1.09c0-0.38-0.102-0.761-0.291-1.09L18.874,2.979
	C18.514,2.35,17.822,1.925,17.1,1.891C17.076,1.89,17.052,1.889,17.027,1.889z M16.965,8.768c0.601-0.009,1.203,0.226,1.628,0.635
	c0.425,0.409,0.667,0.986,0.659,1.564v8.917c0.008,0.573-0.23,1.145-0.648,1.553c-0.418,0.408-1.01,0.646-1.605,0.646
	c-0.595,0-1.185-0.238-1.603-0.646c-0.418-0.408-0.658-0.98-0.65-1.553v-8.917c-0.008-0.567,0.228-1.135,0.638-1.542
	C15.795,9.018,16.376,8.776,16.965,8.768z M16.999,23.717c1.345,0,2.437,1.097,2.437,2.45s-1.092,2.45-2.437,2.45
	s-2.435-1.097-2.435-2.45S15.654,23.717,16.999,23.717z"/>
</svg>
